<svg class="logo-responsive" xmlns="http://www.w3.org/2000/svg" width="44" height="44" viewBox="0 0 29.97 29.97">
    <g>
      <ellipse fill="#fff" cx="15.4" cy="15.96" rx="11.58" ry="12.19"></ellipse>
      <path d="M15,0A15,15,0,1,0,30,15,15,15,0,0,0,15,0Zm.48,25.42a1.06,1.06,0,1,1-2.11,0V13.82a1.06,1.06,0,1,1,2.11,0Zm6-13a1,1,0,0,1-.3.76,1.1,1.1,0,0,1-1.51,0,1,1,0,0,1-.3-.76V7.32H14a1,1,0,0,1-.75-.3A1,1,0,0,1,13,6.26a1.07,1.07,0,0,1,.31-.76A1,1,0,0,1,14,5.2h6.36a1,1,0,0,1,.75.31.94.94,0,0,1,.3.63h0v6.25Z"></path>
    </g>
  </svg>